<svg xmlns="http://www.w3.org/2000/svg" width="27.715" height="30" viewBox="0 0 27.715 30">
  <g id="Сгруппировать_203" data-name="Сгруппировать 203" transform="translate(-680 -1109)">
    <g id="icons8-info_popup" transform="translate(680 1109)">
      <path id="Контур_5917" data-name="Контур 5917" d="M12,14h4.619v1.155H12Z" transform="translate(-9.69 -9.381)" fill="#0d41fb"/>
      <path id="Контур_5918" data-name="Контур 5918" d="M22,14h2.31v1.155H22Z" transform="translate(-13.917 -9.381)" fill="#0d41fb"/>
      <path id="Контур_5919" data-name="Контур 5919" d="M22,33h1.155v4.619H22Z" transform="translate(-13.917 -17.41)" fill="#0d41fb"/>
      <path id="Контур_5920" data-name="Контур 5920" d="M22.155,29.31a1.155,1.155,0,1,1,1.155-1.155A1.156,1.156,0,0,1,22.155,29.31Zm0-1.155Z" transform="translate(-13.494 -14.875)" fill="#0d41fb"/>
      <path id="Контур_5921" data-name="Контур 5921" d="M12,6H35.1V7.155H12Z" transform="translate(-9.69 -6)" fill="#0d41fb"/>
      <path id="Контур_5922" data-name="Контур 5922" d="M33.983,10H9.732A1.734,1.734,0,0,0,8,11.732V31.363A1.734,1.734,0,0,0,9.732,33.1h7.142a.579.579,0,0,1,.473.245l2.558,3.636a1.68,1.68,0,0,0,2.749,0l2.559-3.635a.578.578,0,0,1,.473-.246h8.3a1.734,1.734,0,0,0,1.732-1.732V11.732A1.734,1.734,0,0,0,33.983,10ZM9.732,11.155h24.25a.578.578,0,0,1,.577.577v2.887H9.155V11.732A.578.578,0,0,1,9.732,11.155Zm24.25,20.786h-8.3a1.736,1.736,0,0,0-1.417.736l-2.56,3.636a.54.54,0,0,1-.86,0l-2.559-3.636a1.737,1.737,0,0,0-1.417-.735H9.732a.578.578,0,0,1-.577-.577V15.774H34.56v15.59A.578.578,0,0,1,33.983,31.941Z" transform="translate(-8 -7.69)" fill="#0d41fb"/>
      <path id="Контур_5923" data-name="Контур 5923" d="M12,34.7a1.156,1.156,0,0,0,1.155,1.155H33.941A1.156,1.156,0,0,0,35.1,34.7V22H12Zm1.155-11.548H33.941V34.7H13.155Z" transform="translate(-9.69 -12.762)" fill="#0d41fb"/>
      <path id="Контур_5924" data-name="Контур 5924" d="M27,39h4.619v1.155H27Z" transform="translate(-16.03 -19.946)" fill="#0d41fb"/>
      <path id="Контур_5925" data-name="Контур 5925" d="M27,35h5.774v1.155H27Z" transform="translate(-16.03 -18.256)" fill="#0d41fb"/>
      <path id="Контур_5926" data-name="Контур 5926" d="M27,31h6.929v1.155H27Z" transform="translate(-16.03 -16.565)" fill="#0d41fb"/>
      <path id="Контур_5927" data-name="Контур 5927" d="M27,27h8.083v1.155H27Z" transform="translate(-16.03 -14.875)" fill="#0d41fb"/>
    </g>
  </g>
</svg>
