<svg xmlns="http://www.w3.org/2000/svg" width="30" height="28.846" viewBox="0 0 30 28.846">
  <g id="icons8-system_information" transform="translate(-6 -7)">
    <path id="Контур_5912" data-name="Контур 5912" d="M34.269,7H7.731A1.733,1.733,0,0,0,6,8.731V28.346a1.733,1.733,0,0,0,1.731,1.731h9.808v2.308H15.231A1.733,1.733,0,0,0,13.5,34.115v1.731h15V34.115a1.733,1.733,0,0,0-1.731-1.731H24.462V30.077h9.808A1.733,1.733,0,0,0,36,28.346V8.731A1.733,1.733,0,0,0,34.269,7Zm-7.5,26.538a.578.578,0,0,1,.577.577v.577H14.654v-.577a.578.578,0,0,1,.577-.577H26.769Zm-3.462-1.154H18.692V30.077h4.615Zm11.538-4.038a.578.578,0,0,1-.577.577H7.731a.578.578,0,0,1-.577-.577V8.731a.578.578,0,0,1,.577-.577H34.269a.578.578,0,0,1,.577.577Z" fill="#0d41fb"/>
    <path id="Контур_5913" data-name="Контур 5913" d="M34.231,11H11.154A1.155,1.155,0,0,0,10,12.154v15H35.385v-15A1.155,1.155,0,0,0,34.231,11Zm0,1.154v1.154H11.154V12.154ZM11.154,26V14.462H34.231V26Z" transform="translate(-1.692 -1.692)" fill="#0d41fb"/>
    <path id="Контур_5914" data-name="Контур 5914" d="M46,41h3.462v1.154H46Z" transform="translate(-16.923 -14.385)" fill="#0d41fb"/>
    <path id="Контур_5915" data-name="Контур 5915" d="M38,41h3.462v1.154H38Z" transform="translate(-13.538 -14.385)" fill="#0d41fb"/>
    <path id="Контур_5916" data-name="Контур 5916" d="M26.662,27.946a1.148,1.148,0,0,1-.817-.339l-3.053-3.052.816-.816,3.053,3.052L32.6,20.854l.816.816-5.937,5.938A1.148,1.148,0,0,1,26.662,27.946Z" transform="translate(-7.105 -5.861)" fill="#0d41fb"/>
  </g>
</svg>
