<svg xmlns="http://www.w3.org/2000/svg" width="32" height="32" viewBox="0 0 32 32">
  <g id="icons8-select" transform="translate(-6 -6)">
    <path id="Контур_5937" data-name="Контур 5937" d="M32,27v6.154A3.077,3.077,0,0,0,32,27Z" transform="translate(-10 -8.077)" fill="#0d41fb"/>
    <g id="Сгруппировать_408" data-name="Сгруппировать 408" transform="translate(6 6)">
      <path id="Контур_5938" data-name="Контур 5938" d="M22,6A16,16,0,1,0,38,22,16.047,16.047,0,0,0,22,6Zm0,30.769A14.769,14.769,0,1,1,36.769,22,14.813,14.813,0,0,1,22,36.769Z" transform="translate(-6 -6)" fill="#0d41fb"/>
      <path id="Контур_5939" data-name="Контур 5939" d="M28.154,22a6.154,6.154,0,1,0,6.154,6.154A6.172,6.172,0,0,0,28.154,22Zm0,11.077a4.923,4.923,0,1,1,4.923-4.923A4.938,4.938,0,0,1,28.154,33.077Z" transform="translate(-12.154 -12.154)" fill="#0d41fb"/>
      <path id="Контур_5940" data-name="Контур 5940" d="M23.538,10A13.538,13.538,0,1,0,37.077,23.538,13.578,13.578,0,0,0,23.538,10Zm0,25.846A12.308,12.308,0,1,1,35.846,23.538,12.344,12.344,0,0,1,23.538,35.846Z" transform="translate(-7.538 -7.538)" fill="#0d41fb"/>
    </g>
  </g>
</svg>
