<svg xmlns="http://www.w3.org/2000/svg" width="131.255" height="40" viewBox="0 0 131.255 40">
	<g id="Сгруппировать_96" data-name="Сгруппировать 96" transform="translate(-380.524 600.899)">
		<g id="Сгруппировать_93" data-name="Сгруппировать 93" transform="translate(380.524 -600.899)">
			<path id="Контур_25" data-name="Контур 25" d="M555.394-425.836a5.767,5.767,0,0,0-5.767,5.767h17.3v-5.767Z" transform="translate(-526.929 449.334)" fill="#0d41fb"/>
			<path id="Контур_26" data-name="Контур 26" d="M409.56-569.9a14.254,14.254,0,0,1-9.16,3.234,14.135,14.135,0,0,1-10.046-4.276,14.25,14.25,0,0,1-4.061-9.8,14.14,14.14,0,0,1,4.07-10.117,14.259,14.259,0,0,1,10.162-4.268,14.142,14.142,0,0,1,10.065,4.168l.028.029a10.475,10.475,0,0,0,7.421,3.117H419.3A20.009,20.009,0,0,0,400.4-600.9a19.958,19.958,0,0,0-19.88,20,20,20,0,0,0,20,20,19.925,19.925,0,0,0,13.63-5.365,6.466,6.466,0,0,0,6.371,5.365h0v-9Z" transform="translate(-380.524 600.899)" fill="#0d41fb"/>
		</g>
		<g id="Сгруппировать_94" data-name="Сгруппировать 94" transform="translate(425.097 -596.063)">
			<path id="Контур_27" data-name="Контур 27" d="M939.878-558.615a.6.6,0,0,0-.126.465c-.071,2.877-.276,5.749-.237,8.631a11.426,11.426,0,0,1-.166,2.768c-.1.445-.16.527-.612.528q-1.375,0-2.75,0c-.466,0-.539-.077-.539-.553a36.264,36.264,0,0,1,.093-4.216c.226-1.951.119-3.9.192-5.853.05-1.358.179-2.712.25-4.07a1.467,1.467,0,0,1,1.44-1.325q1.877-.025,3.755,0a1.746,1.746,0,0,1,1.551,1.4,9.83,9.83,0,0,0,.4,1.773.16.16,0,0,1,.019.064,11.12,11.12,0,0,0,.38,2.053,8.493,8.493,0,0,0,.39,1.882,1.529,1.529,0,0,1,.053.361,12.039,12.039,0,0,1,.326,2.722c.115-.713.237-1.42.386-2.1a7.015,7.015,0,0,1,.385-1.78,2.186,2.186,0,0,0,.074-.593,13.171,13.171,0,0,1,.343-1.721c.195-.621.048-1.3.4-1.876a.5.5,0,0,0,.027-.264,1.909,1.909,0,0,1,1.972-1.934c1.126.052,2.258,0,3.386.02a1.512,1.512,0,0,1,1.188.493,1.69,1.69,0,0,1,.431,1.061c0,.748-.023,1.5.013,2.245.057,1.191.175,2.379.226,3.571.043,1,.031,2.01.033,3.015,0,1.329.235,2.643.245,3.972,0,.413.02.826.014,1.239a.389.389,0,0,1-.427.416q-1.542.008-3.085,0a.518.518,0,0,1-.508-.411,1.817,1.817,0,0,1-.061-.564c0-1.2-.015-2.39-.006-3.585.009-1.13-.218-2.241-.235-3.368-.016-.993-.024-1.987-.032-2.981,0-.476,0-.952-.038-1.433a2.517,2.517,0,0,0-.307,1,1.516,1.516,0,0,1-.2.9.8.8,0,0,0-.06.426,1.511,1.511,0,0,1-.2.834.157.157,0,0,0-.038.091c.088.65-.294,1.225-.3,1.86a1.148,1.148,0,0,1-.139.579.341.341,0,0,0-.065.153,9.287,9.287,0,0,1-.353,1.858c-.123.672-.113,1.436-.752,1.924a1.659,1.659,0,0,1-.937.368c-.859.029-1.721.029-2.581,0a1.764,1.764,0,0,1-1.425-1.053c-.12-.321-.133-.648-.223-.961-.173-.6-.19-1.227-.409-1.811a.187.187,0,0,1-.016-.065c.006-.718-.374-1.372-.348-2.092.009-.24-.228-.4-.217-.623a12.9,12.9,0,0,0-.347-1.892A9.827,9.827,0,0,1,939.878-558.615Z" transform="translate(-905.522 562.612)" fill="#080c14"/>
			<path id="Контур_28" data-name="Контур 28" d="M721.513-549.913a7.391,7.391,0,0,1-1.493,1.127,4.072,4.072,0,0,1-.693.3,4.818,4.818,0,0,1-2.719.25,4.085,4.085,0,0,1-2.967-2.233,9.278,9.278,0,0,1-.538-1.523,19.321,19.321,0,0,1-.448-6.329,7.393,7.393,0,0,1,.435-2.313c.123-.321.138-.688.3-1.013a4.688,4.688,0,0,1,1.731-2.138c.528-.315,1.108-.484,1.652-.746a.523.523,0,0,1,.129-.033,12.288,12.288,0,0,1,4.443-.183,6.7,6.7,0,0,1,2.152.388,1.326,1.326,0,0,0,.461.054c.426.045.667.333.539.733a9.223,9.223,0,0,0-.2,2.054c-.053.581-.2.76-.77.76-1.531,0-3.062,0-4.593,0a1.557,1.557,0,0,0-1.473,1.029,4.3,4.3,0,0,0-.256,1.661,15.26,15.26,0,0,0,.02,3.438,7.432,7.432,0,0,0,.033.768,1.981,1.981,0,0,0,.83,1.472.428.428,0,0,0,.147.077,5.384,5.384,0,0,0,2.342-.1c.388-.135.431-.346.427-.69-.016-1.373-.007-2.747-.006-4.121,0-.53.051-.583.568-.584q1.408,0,2.816,0c.625,0,.712.095.712.72q0,3.937,0,7.874c0,.578-.137.719-.706.72-.682,0-1.363,0-2.045,0a.473.473,0,0,1-.552-.451A7.8,7.8,0,0,1,721.513-549.913Z" transform="translate(-712.594 564.874)" fill="#080c14"/>
			<path id="Контур_29" data-name="Контур 29" d="M1094.681-551.945c.927,0,1.855-.01,2.782.005.317.005.592-.082.666-.379a.963.963,0,0,0-.118-.953,2.422,2.422,0,0,0-.957-.589c-.6-.227-1.181-.493-1.764-.758-.239-.108-.486-.212-.734-.3a5.655,5.655,0,0,1-2.81-1.987,3.645,3.645,0,0,1-.631-1.557,8.706,8.706,0,0,1,.023-3.029,3.082,3.082,0,0,1,2.274-2.551,12.1,12.1,0,0,1,3.636-.487,6.306,6.306,0,0,1,2.02.205,2.045,2.045,0,0,0,.666.046,1.658,1.658,0,0,1,1,.214c.113.079.26.047.393.056.612.041.842.319.88.913a11.986,11.986,0,0,1-.235,2.087c-.029.269-.224.294-.442.293q-2.062-.007-4.123-.007c-.346,0-.693.005-1.039,0-.388,0-.766.057-.925.453a1,1,0,0,0,.462,1.179,7.258,7.258,0,0,0,1.322.593c.265.1.529.218.789.331.575.25,1.16.48,1.728.742a4.97,4.97,0,0,1,2.38,2.063,4.83,4.83,0,0,1,.406,1.288,5.836,5.836,0,0,1,.193,1.413,4.849,4.849,0,0,1-.2,1.414c-.109.341-.15.7-.282,1.049a2.862,2.862,0,0,1-1.447,1.568,6.63,6.63,0,0,1-1.926.548,10.364,10.364,0,0,1-1.953.176,6.238,6.238,0,0,1-2.187-.166,2.646,2.646,0,0,0-.865-.055,1.9,1.9,0,0,1-.939-.2.663.663,0,0,0-.425-.065,1.981,1.981,0,0,1-1.015-.289.268.268,0,0,1-.157-.273,4.519,4.519,0,0,1,.031-.9,7.87,7.87,0,0,0,.181-1.592c-.006-.418.1-.5.526-.5.939,0,1.877,0,2.816,0Z" transform="translate(-1040.202 564.579)" fill="#080c14"/>
			<path id="Контур_30" data-name="Контур 30" d="M825.307-555.031a1.827,1.827,0,0,0,.058-.29,6.027,6.027,0,0,1,.688-2.268,6.311,6.311,0,0,0,.272-.779c.175-.571.45-1.1.652-1.657a12.561,12.561,0,0,1,.79-1.892.441.441,0,0,1,.414-.235c1.173,0,2.346-.007,3.519,0a.387.387,0,0,1,.315.623,13.887,13.887,0,0,0-.758,1.615c-.273.663-.623,1.293-.9,1.955-.2.489-.461.952-.651,1.448s-.453.981-.677,1.472c-.2.449-.4.9-.6,1.351-.218.484-.451.962-.659,1.451a3.309,3.309,0,0,0-.393,1.418c.035,1.316.013,2.635.011,3.952,0,.642-.094.732-.736.733h-2.916c-.62,0-.7-.083-.7-.69,0-1.34-.025-2.68.013-4.019a3.733,3.733,0,0,0-.428-1.485c-.2-.509-.453-1-.686-1.492-.226-.478-.4-.98-.656-1.445-.24-.432-.42-.9-.624-1.349-.237-.524-.483-1.044-.7-1.575-.2-.48-.446-.937-.632-1.423-.2-.512-.461-1-.689-1.5-.092-.2-.189-.4-.3-.588-.127-.227.075-.454.387-.457.726-.006,1.452,0,2.179,0,.4,0,.8,0,1.207,0a.82.82,0,0,1,.8.655,7.826,7.826,0,0,0,.439,1.17,8.931,8.931,0,0,1,.361.954c.079.254.207.489.305.729.218.529.4,1.075.632,1.6a3.629,3.629,0,0,1,.395,1.331A1.314,1.314,0,0,0,825.307-555.031Z" transform="translate(-804.102 562.521)" fill="#080c14"/>
		</g>
		<g id="Сгруппировать_95" data-name="Сгруппировать 95" transform="translate(425.122 -575.61)">
			<path id="Контур_31" data-name="Контур 31" d="M712.777-406.869q0-2.11,0-4.221c0-.7.079-.777.758-.778.514,0,1.028.007,1.542,0a2.866,2.866,0,0,1,1.834.678,1.811,1.811,0,0,1,.627,1.039,2.777,2.777,0,0,1-.513,2.817c-.149.148-.176.235-.007.4a1.971,1.971,0,0,1,.649,1.581c-.022.322.011.648-.007.971a2.319,2.319,0,0,1-1.391,2.206,3.843,3.843,0,0,1-1.31.222c-.5.026-1.005.01-1.508,0-.555-.006-.672-.125-.673-.67Q712.776-404.742,712.777-406.869Zm1.714,1.934h.019c0,.19,0,.379,0,.569s0,.4-.014.6c-.006.12,0,.216.14.263a1.22,1.22,0,0,0,1.174-.384,4.177,4.177,0,0,0,.053-2.065c-.015-.029-.046-.048-.066-.074-.3-.389-.735-.3-1.135-.32-.149-.006-.174.136-.172.274C714.5-405.692,714.491-405.313,714.491-404.935Zm.02-4.246c0,.323,0,.645,0,.968,0,.113.01.222.137.279a1.482,1.482,0,0,0,1.117-.257,1.8,1.8,0,0,0,.221-1.118c.038-.847-.564-1.069-1.174-1.079-.213,0-.3.1-.3.3C714.515-409.781,714.513-409.481,714.512-409.18Z" transform="translate(-712.777 411.952)" fill="#6b798c"/>
			<path id="Контур_32" data-name="Контур 32" d="M1045.147-412.473a1.923,1.923,0,0,1,1.868.842,2.526,2.526,0,0,1,.455,1.9.3.3,0,0,1-.327.272c-.223.006-.447.007-.67,0-.453,0-.546-.087-.6-.53a.972.972,0,0,0-.52-.9.787.787,0,0,0-1.065.517,4.057,4.057,0,0,0,0,1.169c.06.385.363.556.7.683a4.475,4.475,0,0,1,2.027,1.071,1.853,1.853,0,0,1,.468.938,4.511,4.511,0,0,1,.127,1.354,4.494,4.494,0,0,1-.476,1.75,2.193,2.193,0,0,1-1.424.973,2.731,2.731,0,0,1-2.407-.474,1.84,1.84,0,0,1-.721-1.365c-.022-.233-.05-.466-.062-.7a.338.338,0,0,1,.378-.4h.838a.347.347,0,0,1,.391.393,1.116,1.116,0,0,0,.019.233.921.921,0,0,0,1.354.643.766.766,0,0,0,.406-.623,3.08,3.08,0,0,0-.085-1.484.938.938,0,0,0-.521-.525,8,8,0,0,0-.933-.347,2.537,2.537,0,0,1-1.3-.762,2.085,2.085,0,0,1-.473-1.178,7.952,7.952,0,0,1,0-1.4,2.365,2.365,0,0,1,1.14-1.785A2.39,2.39,0,0,1,1045.147-412.473Z" transform="translate(-998.262 412.496)" fill="#6b798c"/>
			<path id="Контур_33" data-name="Контур 33" d="M859.66-388.3c0-.971,0-1.943,0-2.914,0-.513.122-.631.633-.637.212,0,.425,0,.637,0,.087,0,.219,0,.252.055.223.35.414.136.649.007a1.624,1.624,0,0,1,2.389,1.5c-.019,1.641,0,3.282-.005,4.923,0,.471-.115.605-.586.612-1.207.017-1.093.083-1.093-1.032q0-1.809,0-3.617c0-.111,0-.224-.006-.335-.031-.373-.246-.633-.522-.635a.9.9,0,0,0-.663.627,2.441,2.441,0,0,0-.009.334q0,2.06,0,4.12c0,.472-.069.537-.546.542-1.108.012-1.129-.009-1.129-1.108Q859.66-387.08,859.66-388.3Z" transform="translate(-839.943 394.759)" fill="#6b798c"/>
			<path id="Контур_34" data-name="Контур 34" d="M1283.854-388.565c0-.982,0-1.965,0-2.947,0-.436.123-.561.552-.573.234-.006.469,0,.7,0,.056,0,.135-.013.163.017.467.517.807-.09,1.208-.139a1.531,1.531,0,0,1,.319-.071,1.734,1.734,0,0,1,1.545,1.653q.008,2.545,0,5.091c0,.4-.131.537-.545.549-1.272.035-1.134-.065-1.132-1.066q0-1.926,0-3.852c0-.419-.219-.7-.536-.7a.728.728,0,0,0-.6.7c-.011.636,0,1.273,0,1.909,0,.826,0,1.652,0,2.479,0,.418-.121.529-.544.539-1.1.025-1.127,0-1.127-1.1Q1283.854-387.326,1283.854-388.565Z" transform="translate(-1207.198 394.992)" fill="#6b798c"/>
			<path id="Контур_35" data-name="Контур 35" d="M1157.422-387.369q0,1.508,0,3.015c0,.43-.119.557-.549.582-.223.013-.447,0-.67,0-.114,0-.252,0-.307-.1-.161-.285-.3-.216-.54-.065a1.438,1.438,0,0,1-2.094-.359,1.966,1.966,0,0,1-.326-1.1c-.014-1.642-.008-3.283,0-4.925,0-.407.13-.533.545-.546.212-.007.425,0,.637,0,.416.006.487.074.488.493q0,2.111,0,4.222c0,.078,0,.156,0,.235.007.374.185.595.482.6a.61.61,0,0,0,.659-.605c.007-1.43,0-2.859,0-4.289,0-.631.026-.652.663-.659,1.173-.012,1.008.024,1.013,1.023C1157.426-389.022,1157.422-388.2,1157.422-387.369Z" transform="translate(-1093.845 393.775)" fill="#6b798c"/>
			<path id="Контур_36" data-name="Контур 36" d="M763.054-387.344c0,1,0,2.01,0,3.014,0,.427-.129.557-.558.57-.212.007-.424,0-.637,0-.1,0-.241.013-.283-.068-.187-.364-.392-.187-.619-.054a1.422,1.422,0,0,1-1.582.022,1.357,1.357,0,0,1-.632-.853,11.9,11.9,0,0,1-.114-2.665c-.026-.959-.008-1.92-.006-2.88,0-.491.105-.6.583-.6,1.13,0,1.028-.093,1.029,1.026q0,1.926,0,3.852c0,.427.194.675.523.676a.6.6,0,0,0,.619-.671c0-1.44,0-2.881,0-4.321,0-.5.056-.558.555-.563q.285,0,.57,0c.491,0,.551.065.552.569Q763.056-388.818,763.054-387.344Z" transform="translate(-752.458 393.767)" fill="#6b798c"/>
			<path id="Контур_37" data-name="Контур 37" d="M902.1-388.395c0-.524,0-1.049,0-1.573a2.121,2.121,0,0,1,1.492-1.966,2.363,2.363,0,0,1,2.794,1.324.991.991,0,0,1,.069.392c0,.67.006,1.339,0,2.008,0,.386-.084.464-.482.467-.592,0-1.183,0-1.775,0-.394,0-.49.1-.49.5a3.488,3.488,0,0,0,.051.464c.036.263.16.439.453.435.26,0,.478-.05.552-.365a.547.547,0,0,1,.573-.424c.223-.006.447,0,.67,0,.3.005.419.175.452.466a2.014,2.014,0,0,1-1.209,1.758,2.166,2.166,0,0,1-1.357.2,2.1,2.1,0,0,1-1.8-2.181C902.119-387.389,902.1-387.893,902.1-388.395Zm2.257-.624c.136-.041.433.131.478-.221a1.647,1.647,0,0,0-.063-.79.477.477,0,0,0-.552-.372c-.339.059-.546.509-.512,1.012C903.736-388.976,904.013-389,904.356-389.019Z" transform="translate(-876.681 394.799)" fill="#6b798c"/>
			<path id="Контур_38" data-name="Контур 38" d="M1242.35-388.359c0-.48-.009-.96,0-1.44a2.018,2.018,0,0,1,1.053-1.876,1.975,1.975,0,0,1,1.7-.259,2.4,2.4,0,0,1,1.426,1.054,2.86,2.86,0,0,1,.228,1.37,23.468,23.468,0,0,1-.053,3.11,1.886,1.886,0,0,1-1.174,1.5c-.168.055-.323.148-.491.2a2.274,2.274,0,0,1-2.5-1.278,3.111,3.111,0,0,1-.2-1.071C1242.356-387.488,1242.35-387.924,1242.35-388.359Zm1.679.01h0c0,.479-.007.958,0,1.437.007.369.19.571.5.588a.569.569,0,0,0,.619-.53q.03-1.453,0-2.906a.667.667,0,0,0-.617-.634.623.623,0,0,0-.507.676C1244.026-389.263,1244.029-388.806,1244.029-388.349Z" transform="translate(-1171.263 394.781)" fill="#6b798c"/>
			<path id="Контур_39" data-name="Контур 39" d="M1087.958-388.241c0-.48.011-.96,0-1.439a2.081,2.081,0,0,1,1.2-2,2.3,2.3,0,0,1,2.946.867,2.532,2.532,0,0,1,.242,1.29c-.036,1.048.017,2.1-.024,3.144a2.128,2.128,0,0,1-1.191,1.6,2.235,2.235,0,0,1-1.926,0,2.153,2.153,0,0,1-1.24-1.754c-.007-.29,0-.58,0-.87S1087.958-387.962,1087.958-388.241Zm1.677-.022h0c0,.5-.01,1,0,1.5.01.383.155.527.491.545.369.02.625-.245.637-.7.014-.556,0-1.113,0-1.67,0-.323.013-.647-.006-.969-.023-.39-.327-.74-.606-.734-.324.007-.524.292-.526.753C1089.634-389.109,1089.635-388.686,1089.635-388.263Z" transform="translate(-1037.595 394.672)" fill="#6b798c"/>
			<path id="Контур_40" data-name="Контур 40" d="M1325-386.98a.835.835,0,0,1,.947.517c.109.225.514.269.757.13a.665.665,0,0,0,.266-.69c-.135-.467-.538-.6-.917-.747a5.435,5.435,0,0,1-1.094-.542,2.076,2.076,0,0,1-.567-2.407,2.025,2.025,0,0,1,.745-.954,2.551,2.551,0,0,1,1.869-.285,3.292,3.292,0,0,1,1.645,1.264.678.678,0,0,1,.1.67c-.06.212-.273.152-.43.174-.188.025-.379.028-.566.056a.863.863,0,0,1-.879-.421.561.561,0,0,0-.8-.056.548.548,0,0,0-.016.779,2.651,2.651,0,0,0,.934.494,2.556,2.556,0,0,1,1.318.967c.005.01.009.023.017.028.645.412.417,1.06.441,1.638a.288.288,0,0,1-.044.192c-.4.409-.639.976-1.191,1.234a2.489,2.489,0,0,1-1.62.246,2.093,2.093,0,0,1-1.7-1.694c-.038-.5.042-.588.548-.592Z" transform="translate(-1242.134 394.777)" fill="#6b798c"/>
			<path id="Контур_41" data-name="Контур 41" d="M979.424-387.165c.138.015.3.03.47.052a.366.366,0,0,1,.351.305c.055.291.277.31.508.326a.543.543,0,0,0,.614-.3.611.611,0,0,0-.063-.663,2.02,2.02,0,0,0-.88-.513,2.588,2.588,0,0,1-1.456-1,1.872,1.872,0,0,1-.276-1.49,2.089,2.089,0,0,1,.911-1.413,2.109,2.109,0,0,1,1.808-.266,2.306,2.306,0,0,1,1.329.916,4.725,4.725,0,0,1,.333.791c.073.169-.039.325-.232.38a2.463,2.463,0,0,1-1.226,0c-.141-.031-.178-.155-.247-.254a.584.584,0,0,0-1-.011c-.206.289,0,.709.445.883a10.529,10.529,0,0,1,1.153.511,2,2,0,0,1,.956,1.1,1.866,1.866,0,0,1,.174.9,2.446,2.446,0,0,1-1.363,1.9,2.435,2.435,0,0,1-2.477-.377,2.183,2.183,0,0,1-.7-1.192c-.087-.321.044-.487.371-.547A4.773,4.773,0,0,1,979.424-387.165Z" transform="translate(-942.86 394.95)" fill="#6b798c"/>
			<path id="Контур_42" data-name="Контур 42" d="M799.522-387.213a.753.753,0,0,1,.9.51c.081.218.338.194.533.193a.413.413,0,0,0,.4-.257.772.772,0,0,0-.375-1.034,8.91,8.91,0,0,1-1.555-.752,2.05,2.05,0,0,1-.553-2.351c.224-.385.365-.814.8-1.021a2.122,2.122,0,0,1,1.865-.245,2.4,2.4,0,0,1,1.07.621,1.621,1.621,0,0,1,.443,1.084c-.008.224-.079.37-.313.393-.528.05-1.08.193-1.41-.438-.1-.19-.585-.176-.763-.013a.651.651,0,0,0,0,.822,2.987,2.987,0,0,0,1.01.486,2.6,2.6,0,0,1,1.4,1.216,2.426,2.426,0,0,1-.88,2.8,2.4,2.4,0,0,1-2.212.092,2.328,2.328,0,0,1-1.2-1.484c-.031-.518.057-.614.571-.62Z" transform="translate(-787.142 395.009)" fill="#6b798c"/>
			<path id="Контур_43" data-name="Контур 43" d="M941.609-387.123a.855.855,0,0,1,.95.463.693.693,0,0,0,.84.185.289.289,0,0,0,.1-.083.944.944,0,0,0-.29-1.116c-.4-.186-.806-.367-1.218-.53a2.105,2.105,0,0,1-1.075-1.542,2.514,2.514,0,0,1,.531-1.769,2.18,2.18,0,0,1,2.194-.578,2.063,2.063,0,0,1,1.178.692,1.709,1.709,0,0,1,.413,1.061.336.336,0,0,1-.3.37,2.828,2.828,0,0,1-.933.011.464.464,0,0,1-.414-.3c-.086-.3-.305-.281-.532-.275-.178.005-.352.047-.4.239a.664.664,0,0,0,.091.693,2.72,2.72,0,0,0,1.011.485,2.566,2.566,0,0,1,1.422,1.295,2.423,2.423,0,0,1-.892,2.721,2.336,2.336,0,0,1-3.292-.943,1.826,1.826,0,0,1-.157-.749c-.012-.187.151-.267.31-.3A3.953,3.953,0,0,1,941.609-387.123Z" transform="translate(-910.22 394.911)" fill="#6b798c"/>
			<path id="Контур_44" data-name="Контур 44" d="M1192.131-400.68c0-.625-.01-1.251.005-1.876.005-.21-.041-.321-.266-.316-.348.007-.469-.2-.478-.514,0-.123.006-.246,0-.368-.024-.334.079-.546.462-.527.226.011.278-.135.277-.328,0-.435,0-.871,0-1.306-.005-.31.134-.445.446-.443,1.213.008,1.1-.111,1.1,1.057q0,.151,0,.3c0,.63,0,.632.6.732a.413.413,0,0,1,.386.395,3.08,3.08,0,0,1,.009.4c-.015.416-.182.6-.6.595-.3,0-.412.1-.407.409.016,1,.005,2.01.007,3.015,0,.433.131.6.548.695a.509.509,0,0,1,.448.538c0,.112,0,.223,0,.335,0,.581-.276.815-.85.673a3.205,3.205,0,0,1-.9-.217,1.528,1.528,0,0,1-.791-1.441q0-.9,0-1.809Z" transform="translate(-1127.143 407.183)" fill="#6b798c"/>
			<path id="Контур_45" data-name="Контур 45" d="M1129.357-407.468q0-1.892,0-3.783c0-.5.112-.607.612-.612.134,0,.268,0,.4,0,.6,0,.659.061.66.678q0,1.976,0,3.951c0,1.027.008,2.054,0,3.08,0,.334.095.565.439.649a.379.379,0,0,1,.311.416c0,.257,0,.513,0,.77s-.127.383-.372.374c-1.142-.045-1.99-.485-2.036-1.873C1129.325-405.034,1129.357-406.252,1129.357-407.468Z" transform="translate(-1073.43 411.949)" fill="#6b798c"/>
			<path id="Контур_46" data-name="Контур 46" d="M840.3-387.325c0,.983,0,1.966,0,2.949,0,.52-.112.615-.634.63-.937.027-1.056-.057-1.045-1.026.02-1.809,0-3.619.006-5.428,0-.543.1-.645.644-.651,1.03-.011,1.03-.011,1.03,1.013Q840.3-388.582,840.3-387.325Z" transform="translate(-821.725 393.759)" fill="#6b798c"/>
			<path id="Контур_47" data-name="Контур 47" d="M1222.889-387.278q0,1.489,0,2.978c0,.479-.069.543-.536.554-1.323.03-1.079-.23-1.081-1.069q-.006-2.727,0-5.454c0-.48.083-.574.558-.577,1.169-.008,1.059-.095,1.06,1.025Q1222.889-388.55,1222.889-387.278Z" transform="translate(-1153.003 393.756)" fill="#6b798c"/>
			<path id="Контур_48" data-name="Контур 48" d="M839.546-410.322c.776,0,.779,0,.779.781,0,.111,0,.223,0,.334a.786.786,0,0,1-.042.228c-.111.29-.548.419-1.1.314a.569.569,0,0,1-.521-.56c-.008-.155,0-.311,0-.467,0-.514.111-.622.629-.629C839.368-410.323,839.457-410.322,839.546-410.322Z" transform="translate(-821.753 410.614)" fill="#6b798c"/>
			<path id="Контур_49" data-name="Контур 49" d="M1222.987-409.5c0,.766-.119.879-.9.845-.574-.025-.719-.177-.719-.755,0-.914,0-.914.921-.913.078,0,.156,0,.234,0,.376.011.451.084.462.454C1222.991-409.746,1222.987-409.623,1222.987-409.5Z" transform="translate(-1153.102 410.615)" fill="#6b798c"/>
		</g>
	</g>
</svg>
