<svg id="Компонент_2_2" data-name="Компонент 2 – 2" xmlns="http://www.w3.org/2000/svg" width="14" height="14" viewBox="0 0 14 14">
	<rect id="Прямоугольник_5" data-name="Прямоугольник 5" width="14" height="14" fill="#6b798c" opacity="0"/>
	<path id="icons8-login" d="M10,3A7,7,0,0,0,3.77,6.818a.583.583,0,1,0,1.038.531,5.833,5.833,0,1,1,0,5.3.583.583,0,1,0-1.038.531A7,7,0,1,0,10,3ZM9.411,7.078a.583.583,0,0,0-.407,1l1.338,1.338H3.583a.583.583,0,1,0,0,1.167h6.758L9,11.921a.583.583,0,1,0,.825.825l2.282-2.282a.583.583,0,0,0,0-.929L9.829,7.254a.583.583,0,0,0-.418-.177Z" transform="translate(-3 -3)" fill="#6b798c"/>
</svg>
