<svg xmlns="http://www.w3.org/2000/svg" width="11.934" height="14.1" viewBox="0 0 11.934 14.1">
	<g id="Сгруппировать_3" data-name="Сгруппировать 3" transform="translate(0.4 0.4)">
		<path id="Path_2" data-name="Path 2" d="M-735.366,866.6a2.392,2.392,0,0,0,2.392-2.392,2.392,2.392,0,0,0-2.392-2.392,2.392,2.392,0,0,0-2.392,2.392h0A2.4,2.4,0,0,0-735.366,866.6Zm0-4.306a1.914,1.914,0,0,1,1.914,1.914,1.914,1.914,0,0,1-1.914,1.914,1.914,1.914,0,0,1-1.914-1.914h0A1.916,1.916,0,0,1-735.366,862.293Z" transform="translate(740.933 -858.642)" fill="#6b798c" stroke="#6b798c" stroke-width="1"/>
		<path id="Path_3" data-name="Path 3" d="M-743.806,860.719a4.948,4.948,0,0,1,4.948-4.949,4.949,4.949,0,0,1,4.949,4.948h0a4.95,4.95,0,0,1-1.464,3.514l-3.484,3.473-3.484-3.474A4.911,4.911,0,0,1-743.806,860.719Zm4.73,7.642a.308.308,0,0,0,.435,0h0l3.324-3.312.379-.378a5.568,5.568,0,0,0,.032-7.873,5.567,5.567,0,0,0-7.873-.032,5.567,5.567,0,0,0-.032,7.873l.032.032Z" transform="translate(744.425 -855.151)" fill="#6b798c" stroke="#6b798c" stroke-width="0.8"/>
	</g>
</svg>