<svg id="Компонент_7_1" data-name="Компонент 7 – 1" xmlns="http://www.w3.org/2000/svg" width="14" height="14" viewBox="0 0 14 14">
  <rect id="Прямоугольник_11" data-name="Прямоугольник 11" width="14" height="14" fill="#080c14" opacity="0"/>
  <path id="icons8-instagram" d="M4.064,0A4.072,4.072,0,0,0,0,4.064V9.936A4.072,4.072,0,0,0,4.064,14H9.936A4.072,4.072,0,0,0,14,9.936V4.064A4.072,4.072,0,0,0,9.936,0Zm0,1.077H9.936a2.978,2.978,0,0,1,2.987,2.987V9.936a2.978,2.978,0,0,1-2.987,2.987H4.064A2.978,2.978,0,0,1,1.077,9.936V4.064A2.978,2.978,0,0,1,4.064,1.077Zm6.975,1.077a.808.808,0,1,0,.808.808A.808.808,0,0,0,11.038,2.154ZM7,3.231A3.769,3.769,0,1,0,10.769,7,3.777,3.777,0,0,0,7,3.231ZM7,4.308A2.692,2.692,0,1,1,4.308,7,2.684,2.684,0,0,1,7,4.308Z" fill="#080c14"/>
</svg>
