<svg id="Компонент_4_1" data-name="Компонент 4 – 1" xmlns="http://www.w3.org/2000/svg" width="14" height="14" viewBox="0 0 14 14">
  <rect id="Прямоугольник_8" data-name="Прямоугольник 8" width="14" height="14" fill="#080c14" opacity="0"/>
  <path id="Контур_2" data-name="Контур 2" d="M-654.255,878.9c.465.734-.509.824-.509.824h-2.063a1.854,1.854,0,0,1-.929-.28c-.7-.455-1.429-1.344-1.938-1.189-.435.13-.43.709-.43,1.209,0,.18-.155.26-.5.26h-.639a4.766,4.766,0,0,1-3.572-1.658,21.87,21.87,0,0,1-3.242-5.43s-.09-.185.01-.295.41-.11.41-.11h2a.9.9,0,0,1,.32.13.638.638,0,0,1,.175.225,9.818,9.818,0,0,0,.764,1.813c.834,1.379,1.219,1.414,1.5,1.264.415-.215.28-1.678.28-1.678a1.8,1.8,0,0,0-.2-.909,1.106,1.106,0,0,0-.624-.35c-.11-.015.075-.21.315-.325a3.748,3.748,0,0,1,1.5-.17,3.842,3.842,0,0,1,.984.09c.684.16.514.579.514,2.053,0,.469-.065,1.134.295,1.354.15.095.674.21,1.613-1.309a10.184,10.184,0,0,0,.8-1.913.59.59,0,0,1,.185-.2.372.372,0,0,1,.27-.065c.16,0,1.753-.01,2.1-.01s.674-.005.734.2a4.22,4.22,0,0,1-1.119,2.4c-1.409,1.793-1.568,1.623-.395,2.662A8.027,8.027,0,0,1-654.255,878.9Z" transform="translate(668.113 -869.067)" fill="#080c14"/>
</svg>
