<svg id="Компонент_5_1" data-name="Компонент 5 – 1" xmlns="http://www.w3.org/2000/svg" width="14" height="14" viewBox="0 0 14 14">
  <rect id="Прямоугольник_9" data-name="Прямоугольник 9" width="14" height="14" fill="#080c14" opacity="0"/>
  <path id="icons8-twitter" d="M13.241,6.9a5.458,5.458,0,0,1-1.568.43,2.735,2.735,0,0,0,1.2-1.509,5.479,5.479,0,0,1-1.733.661A2.73,2.73,0,0,0,6.491,8.967,7.748,7.748,0,0,1,.867,6.116,2.735,2.735,0,0,0,1.712,9.76,2.726,2.726,0,0,1,.475,9.418v.034a2.732,2.732,0,0,0,2.188,2.676,2.73,2.73,0,0,1-.718.1,2.629,2.629,0,0,1-.514-.05,2.735,2.735,0,0,0,2.549,1.9A5.47,5.47,0,0,1,.591,15.237a5.365,5.365,0,0,1-.65-.038,7.709,7.709,0,0,0,4.182,1.226,7.71,7.71,0,0,0,7.764-7.763c0-.118,0-.237-.007-.353A5.547,5.547,0,0,0,13.241,6.9Z" transform="translate(0.409 -3.867)" fill="#080c14"/>
</svg>
