<svg xmlns="http://www.w3.org/2000/svg" width="36" height="36.002" viewBox="0 0 36 36.002">
  <g id="icons8-invite" transform="translate(-7 -6.998)">
    <path id="Контур_5875" data-name="Контур 5875" d="M35.08,25.32H30.76V21H29.32v4.32H25v1.44h4.32v4.32h1.44V26.76h4.32Z" transform="translate(-5.04 -3.921)" fill="#0d41fb"/>
    <path id="Контур_5876" data-name="Контур 5876" d="M42.116,20.834l-2-2.3V12.761A2.164,2.164,0,0,0,37.959,10.6H30.841L27.4,7.827a3.894,3.894,0,0,0-4.8,0L19.159,10.6H12.041A2.164,2.164,0,0,0,9.88,12.761v6.394L8.164,20.734A3.611,3.611,0,0,0,7,23.385V39.4A3.605,3.605,0,0,0,10.6,43H39.4A3.606,3.606,0,0,0,43,39.4V23.2A3.607,3.607,0,0,0,42.116,20.834Zm-1.087.945.013.017-.922.588V20.734ZM23.5,8.948a2.463,2.463,0,0,1,3,0L28.547,10.6H21.453ZM12.041,12.039H37.959a.723.723,0,0,1,.721.721V23.3L26.121,31.322a2.171,2.171,0,0,1-2.33,0L11.32,23.335V12.761A.723.723,0,0,1,12.041,12.039ZM9.88,21.112v1.3l-.822-.527c.029-.03.05-.063.081-.091ZM41.56,39.4a2.163,2.163,0,0,1-2.161,2.16H10.6A2.163,2.163,0,0,1,8.44,39.4V23.385c0-.059.014-.116.019-.174l14.556,9.322a3.614,3.614,0,0,0,3.88,0l14.662-9.36c0,.008,0,.015,0,.023Z" transform="translate(0 0)" fill="#0d41fb"/>
    <path id="Контур_5877" data-name="Контур 5877" d="M11,51h7.2v1.44H11Z" transform="translate(-1.12 -12.321)" fill="#0d41fb"/>
    <path id="Контур_5878" data-name="Контур 5878" d="M11,47h5.76v1.44H11Z" transform="translate(-1.12 -11.201)" fill="#0d41fb"/>
    <path id="Контур_5879" data-name="Контур 5879" d="M43,49h1.44v2.88H43Z" transform="translate(-10.08 -11.761)" fill="#0d41fb"/>
    <path id="Контур_5880" data-name="Контур 5880" d="M47,49h1.44v2.88H47Z" transform="translate(-11.2 -11.761)" fill="#0d41fb"/>
    <path id="Контур_5881" data-name="Контур 5881" d="M51,49h1.44v2.88H51Z" transform="translate(-12.32 -11.761)" fill="#0d41fb"/>
    <path id="Контур_5882" data-name="Контур 5882" d="M39,49h1.44v2.88H39Z" transform="translate(-8.96 -11.761)" fill="#0d41fb"/>
  </g>
</svg>
